# xmcd
#
# Track frame offsets: 
#        150
#        8450
#        28385
#        55435
#        72020
#        100810
#        123085
#
# Disc length: 2410 seconds
#
# Revision: 0
# Processed by: cddbd v1.4PL0 Copyright (c) Steve Scherf et al.
# Submitted via: ExactAudioCopy v0.90b4
#
DISCID=52096807
DTITLE=KAMAU - 00:01 FIRST
DYEAR=2003
DGENRE=Hip-Hop
TTITLE0=Intro (Invitation)
TTITLE1=Old Soul
TTITLE2=Inspired
TTITLE3=Brainstorming
TTITLE4=Glorious Life
TTITLE5=Jacob Two Two
TTITLE6=On Our Side
EXTD=
EXTT0=
EXTT1=
EXTT2=
EXTT3=
EXTT4=
EXTT5=
EXTT6=
PLAYORDER=
